{"scene":0,"asset":{"generator":"ImageToStl.com","version":"2.0"},"scenes":[{"name":"Scene","nodes":[0]}],"nodes":[{"name":"Node0","children":[1]},{"name":"Node1","mesh":0}],"materials":[{"name":"Black","pbrMetallicRoughness":{"baseColorFactor":[0.8,0.8,0.8,1.0],"metallicFactor":0.5,"roughnessFactor":0.64},"emissiveFactor":[0.0,0.0,0.0],"doubleSided":true}],"meshes":[{"name":"Mesh0","primitives":[{"indices":3,"material":0,"attributes":{"POSITION":0,"NORMAL":1,"TEXCOORD_0":2}}]}],"accessors":[{"bufferView":0,"componentType":5126,"count":11102,"type":"VEC3","min":[-0.06325653,-0.06325653,0.0],"max":[0.12626502,0.06325652,0.15021731]},{"bufferView":1,"componentType":5126,"count":11102,"type":"VEC3"},{"bufferView":2,"componentType":5126,"count":11102,"type":"VEC2"},{"bufferView":3,"componentType":5123,"count":171648,"type":"SCALAR"}],"bufferViews":[{"target":34962,"buffer":0,"byteLength":133224,"byteOffset":0},{"target":34962,"buffer":0,"byteLength":133224,"byteOffset":133224},{"target":34962,"buffer":0,"byteLength":88816,"byteOffset":266448},{"target":34963,"buffer":0,"byteLength":343296,"byteOffset":355264}],"buffers":[{"byteLength":698560,"uri":"data:application/octet-stream;base64,"}]}